REM DIRINDEX 1\2,1\3,1\4,1\5,1\6
REM DIRNAME cjc030,folder01,folder02,folder03,folder04,folder05
TITLE ""
FILE "Disc6Track50.mp3" MP3
  TRACK 01 AUDIO
    TITLE "3:cjc030_11875"
    INDEX 01 00:00:00
  TRACK 02 AUDIO
    TITLE "0:"
    INDEX 01 00:01:11
  TRACK 03 AUDIO
    TITLE "4:cjc030_11876"
    INDEX 01 00:01:22
  TRACK 04 AUDIO
    TITLE "0:"
    INDEX 01 00:03:37
  TRACK 05 AUDIO
    TITLE "5:cjc030_11877"
    INDEX 01 00:03:45
  TRACK 06 AUDIO
    TITLE "0:"
    INDEX 01 00:04:60
  TRACK 07 AUDIO
    TITLE "6:cjc030_11878"
    INDEX 01 00:04:74
  TRACK 08 AUDIO
    TITLE "0:"
    INDEX 01 00:08:73
  TRACK 09 AUDIO
    TITLE "3:cjc030_11879"
    INDEX 01 00:09:45
  TRACK 10 AUDIO
    TITLE "0:"
    INDEX 01 00:10:70
  TRACK 11 AUDIO
    TITLE "4:cjc030_11880"
    INDEX 01 00:11:07
  TRACK 12 AUDIO
    TITLE "0:"
    INDEX 01 00:12:63
  TRACK 13 AUDIO
    TITLE "5:cjc030_11881"
    INDEX 01 00:12:69
  TRACK 14 AUDIO
    TITLE "0:"
    INDEX 01 00:14:21
  TRACK 15 AUDIO
    TITLE "3:cjc030_11882"
    INDEX 01 00:15:01
  TRACK 16 AUDIO
    TITLE "0:"
    INDEX 01 00:16:04
  TRACK 17 AUDIO
    TITLE "4:cjc030_11883"
    INDEX 01 00:16:12
  TRACK 18 AUDIO
    TITLE "0:"
    INDEX 01 00:19:58
  TRACK 19 AUDIO
    TITLE "5:cjc030_11884"
    INDEX 01 00:19:67
  TRACK 20 AUDIO
    TITLE "0:"
    INDEX 01 00:20:73
  TRACK 21 AUDIO
    TITLE "6:cjc030_11885"
    INDEX 01 00:21:08
  TRACK 22 AUDIO
    TITLE "0:"
    INDEX 01 00:25:13
  TRACK 23 AUDIO
    TITLE "3:cjc030_11886"
    INDEX 01 00:25:60
  TRACK 24 AUDIO
    TITLE "0:"
    INDEX 01 00:26:69
  TRACK 25 AUDIO
    TITLE "4:cjc030_11887"
    INDEX 01 00:27:06
  TRACK 26 AUDIO
    TITLE "0:"
    INDEX 01 00:29:34
  TRACK 27 AUDIO
    TITLE "5:cjc030_11888"
    INDEX 01 00:29:42
  TRACK 28 AUDIO
    TITLE "0:"
    INDEX 01 00:30:57
  TRACK 29 AUDIO
    TITLE "6:cjc030_11889"
    INDEX 01 00:30:67
  TRACK 30 AUDIO
    TITLE "0:"
    INDEX 01 00:34:24
  TRACK 31 AUDIO
    TITLE "3:cjc030_11890"
    INDEX 01 00:34:71
  TRACK 32 AUDIO
    TITLE "0:"
    INDEX 01 00:36:17
  TRACK 33 AUDIO
    TITLE "4:cjc030_11891"
    INDEX 01 00:36:27
  TRACK 34 AUDIO
    TITLE "0:"
    INDEX 01 00:38:16
  TRACK 35 AUDIO
    TITLE "5:cjc030_11892"
    INDEX 01 00:38:24
  TRACK 36 AUDIO
    TITLE "0:"
    INDEX 01 00:39:49
  TRACK 37 AUDIO
    TITLE "3:cjc030_11893"
    INDEX 01 00:40:23
  TRACK 38 AUDIO
    TITLE "0:"
    INDEX 01 00:41:22
  TRACK 39 AUDIO
    TITLE "4:cjc030_11894"
    INDEX 01 00:41:30
  TRACK 40 AUDIO
    TITLE "0:"
    INDEX 01 00:42:39
  TRACK 41 AUDIO
    TITLE "5:cjc030_11895"
    INDEX 01 00:42:45
  TRACK 42 AUDIO
    TITLE "0:"
    INDEX 01 00:43:48
  TRACK 43 AUDIO
    TITLE "6:cjc030_11896"
    INDEX 01 00:43:60
  TRACK 44 AUDIO
    TITLE "0:"
    INDEX 01 00:48:12
  TRACK 45 AUDIO
    TITLE "3:cjc030_11897"
    INDEX 01 00:48:57
  TRACK 46 AUDIO
    TITLE "0:"
    INDEX 01 00:50:01
  TRACK 47 AUDIO
    TITLE "4:cjc030_11898"
    INDEX 01 00:50:13
  TRACK 48 AUDIO
    TITLE "0:"
    INDEX 01 00:52:00
  TRACK 49 AUDIO
    TITLE "5:cjc030_11899"
    INDEX 01 00:52:06
  TRACK 50 AUDIO
    TITLE "0:"
    INDEX 01 00:53:27
  TRACK 51 AUDIO
    TITLE "6:cjc030_11900"
    INDEX 01 00:53:41
  TRACK 52 AUDIO
    TITLE "0:"
    INDEX 01 00:55:36
  TRACK 53 AUDIO
    TITLE "3:cjc030_11901"
    INDEX 01 00:56:10
  TRACK 54 AUDIO
    TITLE "0:"
    INDEX 01 00:57:19
  TRACK 55 AUDIO
    TITLE "4:cjc030_11902"
    INDEX 01 00:57:31
  TRACK 56 AUDIO
    TITLE "0:"
    INDEX 01 00:58:60
  TRACK 57 AUDIO
    TITLE "5:cjc030_11903"
    INDEX 01 00:58:69
  TRACK 58 AUDIO
    TITLE "0:"
    INDEX 01 01:00:06
  TRACK 59 AUDIO
    TITLE "3:cjc030_11904"
    INDEX 01 01:00:60
  TRACK 60 AUDIO
    TITLE "0:"
    INDEX 01 01:02:05
  TRACK 61 AUDIO
    TITLE "4:cjc030_11905"
    INDEX 01 01:02:16
  TRACK 62 AUDIO
    TITLE "0:"
    INDEX 01 01:04:13
  TRACK 63 AUDIO
    TITLE "5:cjc030_11906"
    INDEX 01 01:04:25
  TRACK 64 AUDIO
    TITLE "0:"
    INDEX 01 01:05:46
  TRACK 65 AUDIO
    TITLE "6:cjc030_11907"
    INDEX 01 01:05:56
  TRACK 66 AUDIO
    TITLE "0:"
    INDEX 01 01:07:55
